<svg xmlns="http://www.w3.org/2000/svg" width="160" height="60" viewBox="0 0 160 60"><path fill="#FFF" d="M41.57 42.683c-3.051 1.563-6.119 2.907-9.156 4.026.226-1.873 1.131-3.977 2.646-6.053 1.82-2.494 5.349-6.078 11.822-8.986 2.629-1.182 5.052-1.475 6.172-.746.267.173.62.498.62 1.318.001 2.971-3.619 6.094-12.104 10.441m-3.305 9.743c-3.133.178-5.175-1.028-5.749-3.395l-.047-.264c3.314-1.189 6.662-2.641 9.987-4.345 3.634-1.862 6.41-3.511 8.46-5.059-2.246 4.207-7.804 12.789-12.651 13.063m-27.928-1.785c-5.337-.262-7.273-1.395-7.956-2.299-.43-.568-.537-1.246-.336-2.134.413-1.823 4.186-4.767 12.616-9.841l.983-.582c.553 4.365 1.299 9.568 2.228 14.551-2.612.316-5.136.421-7.535.305m149.569-11.28c-.052-.535-.528-.929-1.063-.875-.503.049-.879.474-.879.971l.004.096.031.366c-5.176-6.794-13.648-12.446-19.684-12.942-4.473-.367-8.742 3.185-12.686 10.557-2.053 3.838-3.592 7.916-4.558 10.745-1.349-6.487-4.103-18.932-4.467-19.97-.159-.45-.554-.741-1.007-.743-.759-.003-1.176.618-1.971 2.369-.486 1.071-1.104 2.579-1.887 4.608-1.424 3.689-3.092 8.316-4.564 12.396-.688 1.908-1.386 3.846-1.955 5.387-.26-4.232-.355-11.76-.419-16.812-.034-2.726-.063-5.08-.106-6.824-.024-.937-.05-1.621-.079-2.094-.041-.665-.104-1.67-1.08-1.67-.677 0-.925.499-1.42 1.493l-1.224 2.54c-1.484 3.119-3.73 7.834-6.031 11.902-3.475 6.141-5.204 7.469-5.926 7.715-.092.031-.209.055-.42-.08-.631-.404-2.295-2.333-4.102-11.515-1.023-5.197-1.578-10.161-1.584-10.211l-1.728-.083c1.579-1.639 3.437-3.541 5.461-5.561 3.214.166 5.983.226 7.349.092.535-.052.926-.53.875-1.066-.053-.538-.529-.93-1.064-.877-1.035.101-2.955.081-5.278-.015 6.539-6.437 14.334-13.6 20.035-17.243.243.15.642.501.935.835.355.404.971.443 1.375.087.402-.356.443-.972.088-1.377-.707-.81-2.064-2.062-3.191-1.354-6.305 3.958-14.987 12.039-21.903 18.92-6.229-.354-13.82-1.067-15.764-1.495-.525-.114-1.044.219-1.159.746-.116.527.217 1.048.743 1.163 1.897.417 8.408 1.051 14.339 1.43-5.258 5.304-9.137 9.525-9.503 9.924-.363.397-.338 1.015.059 1.38.396.366 1.012.34 1.376-.057.062-.069 1.994-2.171 4.98-5.274-2.416 11.585-4.845 21.599-5.986 24.825-1.075-2.35-2.887-8.456-4.154-12.73-3.238-10.92-4-12.908-5.098-13.297-.349-.124-.722-.075-1.024.135-1.569 1.085-2.675 5.277-4.35 12.027-1.231 4.963-2.917 11.758-4.417 12.853l-.023.015c-.177-.162-.693-.848-1.303-3.598-.521-2.354-.958-5.532-1.315-8.33l-.165-1.289c1.795-1.793 2.602-3.502 2.602-5.314 0-1.635-.82-2.511-1.508-2.959-1.711-1.111-4.712-.886-8.027.604-10.448 4.695-15.532 12.057-15.664 17.526-3.623 1.222-7.189 2.112-10.622 2.653-.985-5.27-1.765-10.806-2.326-15.324 11.226-6.239 27.67-12.843 30.593-12.843.538 0 .974-.438.974-.977 0-.54-.436-.977-.974-.977-3.442 0-19.551 6.521-30.846 12.707-.523-4.44-.796-7.485-.803-7.564-.047-.537-.52-.935-1.056-.887-.536.048-.932.521-.884 1.059.008.084.314 3.514.904 8.419-.594.34-1.17.678-1.726 1.012-9.404 5.663-12.939 8.564-13.51 11.084-.329 1.452-.099 2.714.684 3.748 1.379 1.822 4.458 2.826 9.413 3.068 2.547.124 5.228.006 7.999-.336.492 2.473 1.03 4.855 1.613 7.012.141.521.675.828 1.195.688.519-.142.825-.679.685-1.199-.563-2.083-1.084-4.383-1.562-6.771 3.382-.537 6.883-1.4 10.436-2.575l.015.083c.797 3.289 3.695 5.114 7.751 4.885 5.493-.31 10.795-8.122 13.271-12.342.288 2.049.607 4.027.979 5.68.671 2.976 1.407 4.44 2.463 4.897.354.153 1.069.321 1.883-.272 1.93-1.408 3.296-6.442 5.163-13.961.894-3.606 2.065-8.32 3.036-10.166.898 2.015 2.476 7.329 3.678 11.387 3.233 10.902 4.36 14.163 5.599 14.765.315.153.662.169.975.042.619-.254 1.197-.49 3.706-10.828.93-3.824 1.833-7.863 2.528-11.057.232 1.482.515 3.141.847 4.826 2.165 11.004 4.275 12.354 4.969 12.796.663.425 1.387.522 2.091.283 3.601-1.226 8.645-11.29 13.089-20.626l.116-.244c.035 1.712.062 3.863.09 5.982.055 4.356.117 9.294.256 13.272.078 2.187.168 3.832.279 5.033.194 2.118.426 2.608.869 2.905l.395.264.459-.146c.63-.209.63-.209 3.895-9.262 1.747-4.848 4.705-13.048 6.277-16.621 1.314 5.572 4.465 20.33 4.583 21.24l.037.703.786.179c.309.046.864.003 1.131-.823l.148-.471c4.676-15.006 10.575-23.35 16.184-22.889 5.895.484 14.773 6.762 19.389 13.709.582.875 1.215.81 1.541.693.59-.213 1.139-.693.819-3.965"/></svg>